<svg id="magnifying_icon" xmlns="http://www.w3.org/2000/svg" viewBox="0 0 542 542"><defs><style>.cls-1{fill:#fff;stroke:#ccc;stroke-miterlimit:10;stroke-width:8px;}</style></defs><title>magnifyingGlass</title><g id="circle"><circle id="circle-2" data-name="circle" class="cls-1" cx="271" cy="271" r="267"/><circle id="circle-3" data-name="circle" class="cls-1" cx="271" cy="271" r="267"/></g><g id="magnfying_glass"><circle id="glass" class="cls-1" cx="423.85" cy="303.59" r="85.74" transform="translate(-331.53 275.63) rotate(-45)"/><path id="handle" class="cls-1" d="M661.44,506.77a24.69,24.69,0,0,1-.16,34.8h0a24.69,24.69,0,0,1-34.8.16L471.4,386.66c-10.49-10.49,8.19-8.19,17.76-17.76h0c9.57-9.57,6.72-27.69,17.21-17.21Z" transform="translate(-241 -113)"/><path id="top" class="cls-1" d="M506.37,421.62l-35-35c-10.49-10.49,8.19-8.19,17.76-17.76h0c9.57-9.57,6.72-27.69,17.21-17.21l35,35Z" transform="translate(-241 -113)"/></g><path id="details" class="cls-1" d="M385.47,342a54.28,54.28,0,0,1,0-76.76" transform="translate(-241 -113)"/></svg>